<svg xmlns="http://www.w3.org/2000/svg" viewBox="0 0 400 600" width="400mm" height="600mm"><path stroke="black" stroke-width="0.1" d="M 97 2 l 205 0 a 3 3 0 0 0 3 3 a 90 80 0 0 1 90 80 a 90 80 0 0 1 -90 80 a 3 3 0 0 0 -3 3 a 3 3 0 0 0 3 3 a 90 80 0 0 1 90 80 a 90 80 0 0 1 -90 80 a 3 3 0 0 0 -3 3 l 0 80 l 0 80 l 0 80 a 3 3 0 0 1 -3 3 l -199 0 a 3 3 0 0 1 -3 -3 l 0 -80 l 0 -80 l 0 -80 a 3 3 0 0 0 -3 -3 a 90 80 0 0 1 -90 -80 a 90 80 0 0 1 90 -80 a 3 3 0 0 0 3 -3 a 3 3 0 0 0 -3 -3 a 90 80 0 0 1 -90 -80 a 90 80 0 0 1 90 -80 a 3 3 0 0 0 3 -3" fill="black"/><path stroke="black" stroke-width="0.1" d="M 199.5 152 a 3 3 0 0 1 -3 3 l -99 0 l 0 -70 l 99 0 a 3 3 0 0 1 3 3 a 3 3 0 0 1 3 -3 l 99 0 l 0 70 l -99 0 a 3 3 0 0 1 -3 -3" fill="white"/><path stroke="black" stroke-width="0.1" d="M 199.5 178 c 24 0 20.7 0.2 28 30 s 12 30 -28 30 s -35 0 -28 -30 s 4 -30 28 -30" fill="white"/></svg>